<?xml version="1.0" standalone="no"?><!DOCTYPE svg PUBLIC "-//W3C//DTD SVG 1.1//EN" "http://www.w3.org/Graphics/SVG/1.1/DTD/svg11.dtd"><svg t="1701772923035" class="icon" viewBox="0 0 1027 1024" version="1.1" xmlns="http://www.w3.org/2000/svg" p-id="5642" xmlns:xlink="http://www.w3.org/1999/xlink" width="16.046875" height="16"><path d="M400.290909 940.218182h-248.242424c-37.236364 0-68.266667-31.030303-68.266667-68.266667v-248.242424c0-21.721212-18.618182-40.339394-40.339394-40.339394-21.721212 0-40.339394 18.618182-40.339394 40.339394v248.242424C0 955.733333 68.266667 1024 152.048485 1024h248.242424c21.721212 0 40.339394-18.618182 40.339394-40.339394 3.10303-24.824242-18.618182-43.442424-40.339394-43.442424z m-359.951515-496.484849c21.721212 0 40.339394-18.618182 40.339394-40.339394V155.151515c0-37.236364 31.030303-68.266667 68.266667-68.266667h248.242424c21.721212 0 40.339394-18.618182 40.339394-40.339393 0-21.721212-18.618182-40.339394-40.339394-40.339394h-248.242424C68.266667 0 0 68.266667 0 152.048485v248.242424c0 21.721212 18.618182 43.442424 40.339394 43.442424zM871.951515 0h-248.242424c-21.721212 0-40.339394 18.618182-40.339394 40.339394 0 21.721212 18.618182 40.339394 40.339394 40.339394h248.242424c37.236364 0 68.266667 31.030303 68.266667 68.266667v248.242424c0 21.721212 18.618182 40.339394 40.339394 40.339394 21.721212 0 40.339394-18.618182 40.339394-40.339394v-248.242424C1024 68.266667 955.733333 0 871.951515 0z m111.709091 580.266667c-21.721212 0-40.339394 18.618182-40.339394 40.339394v248.242424c0 37.236364-31.030303 68.266667-68.266667 68.266667h-248.242424c-21.721212 0-40.339394 18.618182-40.339394 40.339393 0 21.721212 18.618182 40.339394 40.339394 40.339394h248.242424c83.781818 0 152.048485-68.266667 152.048485-152.048484v-248.242425c-3.10303-15.515152-21.721212-37.236364-43.442424-37.236363z m-344.436364-248.242425c-86.884848-86.884848-226.521212-86.884848-313.40606 0s-86.884848 226.521212 0 313.406061 226.521212 86.884848 313.40606 0 86.884848-226.521212 0-313.406061z m-46.545454 266.860606c-62.060606 62.060606-158.254545 62.060606-220.315152 0s-62.060606-158.254545 0-220.315151 158.254545-62.060606 220.315152 0 62.060606 161.357576 0 220.315151z m74.472727 49.648485l-21.721212 21.721212c-6.206061 6.206061-6.206061 15.515152 0 21.721213l93.090909 93.090909c6.206061 6.206061 15.515152 6.206061 21.721212 0l21.721212-21.721212c6.206061-6.206061 6.206061-15.515152 0-21.721213l-93.090909-93.090909c-6.206061-6.206061-15.515152-6.206061-21.721212 0z" fill="#2c2c2c" p-id="5643"></path></svg>