<?xml version="1.0" standalone="no"?><!DOCTYPE svg PUBLIC "-//W3C//DTD SVG 1.1//EN" "http://www.w3.org/Graphics/SVG/1.1/DTD/svg11.dtd"><svg t="1701760999028" class="icon" viewBox="0 0 1024 1024" version="1.1" xmlns="http://www.w3.org/2000/svg" p-id="21880" xmlns:xlink="http://www.w3.org/1999/xlink" width="200" height="200"><path d="M512 56.888889a512 512 0 0 1 512 512c0 282.737778-229.262222 398.222222-512 398.222222S0 851.626667 0 568.888889A512 512 0 0 1 512 56.888889z" fill="#F9D342" p-id="21881"></path><path d="M386.844444 204.8m-56.888888 0a56.888889 56.888889 0 1 0 113.777777 0 56.888889 56.888889 0 1 0-113.777777 0Z" fill="#FFF6D4" p-id="21882"></path><path d="M250.311111 557.511111a91.022222 91.022222 0 1 1-91.022222 91.022222 91.022222 91.022222 0 0 1 91.022222-91.022222z m523.377778 0a91.022222 91.022222 0 1 1-91.022222 91.022222 91.022222 91.022222 0 0 1 91.022222-91.022222z" fill="#F99C42" p-id="21883"></path><path d="M399.815111 693.248l277.731556-61.326222a183.728356 183.728356 0 0 1-129.706667 98.531555c-98.304 21.731556-148.024889-37.205333-148.024889-37.205333z" fill="#4F3F00" p-id="21884"></path><path d="M637.952 663.893333l22.186667 100.010667a102.434133 102.434133 0 0 1-200.021334 44.259556l-22.072889-100.010667z" fill="#F55867" p-id="21885"></path><path d="M328.135111 249.059556A183.296 183.296 0 1 1 144.839111 432.355556a183.352889 183.352889 0 0 1 183.296-183.296z" fill="#FFFFFF" p-id="21886"></path><path d="M461.880889 462.222222m-56.149333 0a56.149333 56.149333 0 1 0 112.298666 0 56.149333 56.149333 0 1 0-112.298666 0Z" fill="#4F3F00" p-id="21887"></path><path d="M830.691556 394.353778L613.944889 467.626667l213.560889 105.130666-82.488889-101.034666z" fill="#4F3F00" p-id="21888"></path></svg>